<svg xmlns="http://www.w3.org/2000/svg" xmlns:xlink="http://www.w3.org/1999/xlink" id="Layer_1" x="0" y="0" version="1.1" viewBox="0 0 512 512" xml:space="preserve" style="enable-background:new 0 0 512 512"><circle style="fill:#71e2ef" cx="256" cy="256" r="256"/><path style="fill:#38c6d9" d="M512,256c0-18.006-1.869-35.573-5.404-52.529l-98.047-99.731L103.739,408.548l97.578,97.578	C218.939,509.962,237.23,512,256,512C397.384,512,512,397.384,512,256z"/><path style="fill:#fff" d="M114.393,417.516c-7.764-5.508-14.402-12.145-19.909-19.909	c-18.408-26.962,0.355-77.296,21.956-94.468c67.867-56.601,130.1-118.834,186.701-186.699c17.17-21.601,67.505-40.364,94.468-21.956	c7.764,5.508,14.402,12.145,19.909,19.909c18.408,26.964-0.355,77.298-21.956,94.468c-67.867,56.601-130.1,118.834-186.701,186.699	C191.69,417.161,141.355,435.924,114.393,417.516z"/><path style="fill:#d3d3d3" d="M417.518,114.393c-2.715-3.825-5.706-7.377-8.968-10.654L103.739,408.548	c3.279,3.263,6.828,6.253,10.654,8.968c26.962,18.408,77.298-0.357,94.468-21.956c56.601-67.865,118.834-130.1,186.701-186.699	C417.161,191.691,435.924,141.357,417.518,114.393z"/><g><rect style="fill:#aab4b5" width="85.333" height="28.444" x="246.365" y="210.848" transform="matrix(-0.7071 -0.7071 0.7071 -0.7071 334.2578 588.5949)"/><rect style="fill:#aab4b5" width="85.333" height="28.444" x="172.828" y="284.39" transform="matrix(-0.7071 -0.7071 0.7071 -0.7071 156.7215 662.1404)"/></g><g><rect style="fill:#777c7c" width="43.949" height="28.444" x="281.682" y="225.477" transform="matrix(0.7071 0.7071 -0.7071 0.7071 258.4319 -144.5114)"/><rect style="fill:#777c7c" width="43.951" height="28.444" x="208.146" y="299.018" transform="matrix(0.7071 0.7071 -0.7071 0.7071 288.8952 -70.9742)"/></g></svg>